<svg width="64" height="64" viewBox="0 0 64 64" fill="none" xmlns="http://www.w3.org/2000/svg">
<rect x="1" y="1" width="62" height="62" rx="31" fill="#F5F5F5" fill-opacity="0.4" stroke="#006CB7" stroke-width="2"/>
<path fill-rule="evenodd" clip-rule="evenodd" d="M23 19.18C23 18.5283 23.5283 18 24.18 18H26V21H23V19.18ZM23 23H26V26H23V23ZM23 28H26V31H23V28ZM23 33H26V36H24.18C23.5283 36 23 35.4717 23 34.82V33ZM28 36V32V28H36V32V36H28ZM38 36V33H41V34.82C41 35.4717 40.4717 36 39.82 36H38ZM41 31H38V28H41V31ZM41 26H38V23H41V26ZM41 21H38V18H39.82C40.4717 18 41 18.5283 41 19.18V21ZM36 18V22V26H28V22V18H36ZM37 16H39.82C41.5763 16 43 17.4237 43 19.18V22V27V32V34.82C43 36.5763 41.5763 38 39.82 38H37H27H24.18C22.4237 38 21 36.5763 21 34.82V32V27V22V19.18C21 17.4237 22.4237 16 24.18 16H27H37Z" fill="#006CB7"/>
<path d="M29 46L32 49L35 46" stroke="#006CB7" stroke-width="2" stroke-linecap="round" stroke-linejoin="round"/>
<path d="M32 49V43" stroke="#006CB7" stroke-width="2" stroke-linecap="round" stroke-linejoin="round"/>
</svg>
