<svg width="32" height="27" viewBox="0 0 32 27" fill="none" xmlns="http://www.w3.org/2000/svg">
<g opacity="0.7">
<path fill-rule="evenodd" clip-rule="evenodd" d="M16 27.0003C22.2183 27.0003 27.2592 24.9364 27.2592 22.3905C27.2592 22.3903 27.2592 22.3902 27.2592 22.39V18.4388H21.8006C20.1065 18.0211 18.1218 17.7808 16 17.7808C13.8782 17.7808 11.8935 18.0211 10.1993 18.4388H4.74072V22.39C4.74072 22.3902 4.74072 22.3903 4.74072 22.3905C4.74072 24.9364 9.78167 27.0003 16 27.0003Z" fill="#006CB7"/>
<path fill-rule="evenodd" clip-rule="evenodd" d="M16 23.7074C24.8366 23.7074 32 19.9925 32 15.4099C32 15.4098 32 15.4098 32 15.4098V8.2976H24.2457C21.8376 7.54515 19.0163 7.1123 16 7.1123C12.9837 7.1123 10.1624 7.54515 7.7543 8.2976H0V15.4098C0 15.4098 0 15.4098 0 15.4099C0 19.9925 7.16344 23.7074 16 23.7074Z" fill="#2CAFE5"/>
<ellipse cx="16" cy="8.29756" rx="16" ry="8.29756" fill="#BBDCF5"/>
<path fill-rule="evenodd" clip-rule="evenodd" d="M16.0002 13.6975C20.9094 13.6975 24.8891 11.6337 24.8891 9.08778C24.8891 9.08762 24.8891 9.08745 24.8891 9.08728V5.13606H20.5797C19.2422 4.71832 17.6753 4.47803 16.0002 4.47803C14.3251 4.47803 12.7582 4.71832 11.4208 5.13606H7.11133V9.08728C7.11133 9.08745 7.11133 9.08762 7.11133 9.08778C7.11133 11.6337 11.091 13.6975 16.0002 13.6975Z" fill="#2CAFE5"/>
<ellipse cx="16.0002" cy="4.74146" rx="8.88889" ry="4.74146" fill="#BBDCF5"/>
</g>
<line x1="12.5" y1="6.5" x2="19.5" y2="6.5" stroke="#006CB7" stroke-linecap="round"/>
<path d="M13 5H19" stroke="#006CB7" stroke-linecap="round"/>
<line x1="13.5" y1="3.5" x2="18.5" y2="3.5" stroke="#006CB7" stroke-linecap="round"/>
</svg>
